<svg xmlns="http://www.w3.org/2000/svg" viewBox="0 0 1024 1024" style="height: 1024px; width: 1024px;">
<path d="M0 0 C0.66 0 1.32 0 2 0 C3.28791309 4.92478995 4.57575907 9.84959744 5.86354828 14.77441978 C6.33865254 16.59132802 6.81376551 18.40823398 7.28888702 20.22513771 C10.14742279 31.15658499 13.00479077 42.08833583 15.85961914 53.02075195 C16.6494157 56.04504703 17.43922642 59.06933841 18.22905159 62.09362602 C18.7542415 64.10461368 19.27941209 66.11560638 19.80456352 68.12660408 C22.66879568 79.09386006 25.53768627 90.0598304 28.42607117 101.02075195 C29.65936678 105.70229002 30.888611 110.38488557 32.11709595 115.06768799 C32.66127325 117.13707184 33.20761794 119.20588704 33.75619507 121.27410889 C34.49782756 124.07067122 35.23222683 126.86903363 35.96484375 129.66796875 C36.17618958 130.45649734 36.3875354 131.24502594 36.60528564 132.05744934 C37.56467418 135.75301833 38.42377585 139.17387094 38 143 C36.35546875 144.5546875 36.35546875 144.5546875 34.1875 145.875 C30.0542499 148.75508385 28.27687357 150.97763064 27 156 C26.76855267 162.0176307 28.00754153 166.36011583 32 171 C37.56979579 175.52081758 44.04442138 177.14015461 50.8125 179.25 C63.84864026 183.48046572 75.86970664 188.0506838 87.453125 195.42578125 C88.39430176 196.02487305 89.33547852 196.62396484 90.30517578 197.24121094 C92.14573431 198.43000459 93.9731111 199.63953318 95.78466797 200.87207031 C100.93025183 204.26310593 100.93025183 204.26310593 106.96484375 204.99609375 C110.8942401 203.70652352 112.08555948 202.6757258 114 199 C114.65757261 194.25548876 114.69432126 191.04148189 112 187 C112 186.01 112 185.02 112 184 C118.2031535 181.70696956 124.40636733 179.41410236 130.60961914 177.12133789 C132.71086935 176.34468096 134.81210676 175.56798943 136.91333008 174.79125977 C137.92484131 174.41735107 138.93635254 174.04344238 139.97851562 173.65820312 C141.49274612 173.09838242 141.49274612 173.09838242 143.03756714 172.5272522 C145.06525652 171.77803499 147.09319002 171.02947813 149.12136841 170.28158569 C153.96794473 168.49397733 158.81103156 166.69819895 163.64599609 164.87939453 C164.52245285 164.55145401 165.39890961 164.22351349 166.30192566 163.88563538 C167.93990371 163.27245264 169.57648051 162.65550879 171.21138 162.03416443 C174.27289514 160.89173098 176.70382283 160 180 160 C179.36546475 165.82733991 177.25644331 170.89764802 175.10546875 176.296875 C174.522528 177.78009247 174.522528 177.78009247 173.92781067 179.29327393 C172.68652163 182.4477086 171.43711643 185.5988562 170.1875 188.75 C169.35819236 190.85395721 168.52941087 192.95812188 167.70117188 195.0625 C164.15962328 204.05190787 160.59409258 213.03146923 157 222 C156.30406738 221.89212158 155.60813477 221.78424316 154.89111328 221.6730957 C148.91862877 220.79534848 145.19733625 220.8179574 140 224 C136.92644489 227.37099593 136.16942942 230.99787901 136.34375 235.46484375 C137.46716411 239.80469945 140.44119731 242.74350916 143.22265625 246.1796875 C156.26915519 263.24520543 163.31508094 284.60700034 167.921875 305.28515625 C169.29577593 313.05876162 169.29577593 313.05876162 173.5625 319.3125 C180.87891832 322.90419626 185.95353334 323.5794701 193.73828125 320.921875 C194.48464844 320.61765625 195.23101563 320.3134375 196 320 C196.71542969 319.71640625 197.43085937 319.4328125 198.16796875 319.140625 C200.4710384 317.70673089 200.97502445 316.48533894 202 314 C203.33333333 311.33333333 204.66666667 308.66666667 206 306 C213.62813171 306.52698157 220.93650351 307.65106227 228.40185547 309.28149414 C229.48519669 309.51262909 230.5685379 309.74376404 231.68470764 309.98190308 C235.2468828 310.74351066 238.80701016 311.51426859 242.3671875 312.28515625 C244.88587707 312.82562502 247.40468851 313.36552615 249.9236145 313.90489197 C255.88675991 315.1832122 261.84863271 316.46731526 267.80992424 317.75424904 C274.45046113 319.18748048 281.09259764 320.61322375 287.73488188 322.03833127 C315.49645112 327.99518083 343.25015769 333.98876509 371 340 C371 340.66 371 341.32 371 342 C369.75799835 342.32191818 368.5159967 342.64383636 367.23635864 342.97550964 C355.27293979 346.07637123 343.30957395 349.17743729 331.34625435 352.27868176 C324.01274518 354.1797355 316.67920089 356.08065366 309.34561539 357.98141289 C305.77788039 358.9061828 302.21019794 359.83115525 298.64251709 360.75613403 C293.88418045 361.98974313 289.1255653 363.22227021 284.36676025 364.45407104 C273.58991172 367.2448697 262.8153658 370.04357527 252.04998207 372.87832546 C247.38869682 374.10563745 242.72635314 375.32890255 238.06399155 376.5521183 C235.8673273 377.12985984 233.67124235 377.70980895 231.47577286 378.2920742 C228.45773314 379.09244783 225.43785182 379.88548078 222.41748047 380.67700195 C221.53110775 380.91429583 220.64473503 381.1515897 219.73150253 381.3960743 C211.86224005 383.44425019 211.86224005 383.44425019 208 383 C206.296875 381.609375 206.296875 381.609375 204.75 379.75 C199.72340246 374.36358095 193.38169786 371.53979489 186.0234375 370.97265625 C182.10614636 371.02559262 178.7039399 371.74078329 175 373 C174.17113281 373.25394531 173.34226562 373.50789063 172.48828125 373.76953125 C166.52744888 376.35286289 164.28773307 379.8412546 161.96362305 385.65820312 C160.97918026 388.30599755 160.01665963 390.96115679 159.0546875 393.6171875 C154.69343188 405.49256744 147.92146423 416.47668532 140.13525391 426.41162109 C137.45566314 429.91871652 136.23176366 432.57866255 136 437 C136.31290274 439.4789578 136.31290274 439.4789578 137.125 441.75 C137.35445312 442.50796875 137.58390625 443.2659375 137.8203125 444.046875 C139.46530931 446.77037965 140.98819301 447.05428114 144 448 C147.12579194 448.24012919 147.12579194 448.24012919 150.3125 448.125 C151.38113281 448.10695313 152.44976563 448.08890625 153.55078125 448.0703125 C154.35902344 448.04710937 155.16726563 448.02390625 156 448 C156.25864838 448.65288498 156.51729675 449.30576996 156.78378296 449.97843933 C159.2259583 456.14298041 161.6682129 462.30749008 164.11055565 468.47196484 C165.36606495 471.64087926 166.62154403 474.80980565 167.87695312 477.97875977 C169.32152363 481.6251988 170.76622723 485.27158509 172.2109375 488.91796875 C172.65996429 490.05147263 173.10899109 491.1849765 173.57162476 492.35282898 C173.99190948 493.41355118 174.41219421 494.47427338 174.84521484 495.56713867 C175.21383636 496.49757492 175.58245789 497.42801117 175.96224976 498.38664246 C176.66297023 500.15126082 177.38782564 501.90645807 178.13467407 503.65205383 C179 506 179 506 179 509 C171.30615638 507.49787594 164.102558 505.08543601 156.72265625 502.46484375 C155.46250235 502.02127854 154.20219991 501.57813512 152.9417572 501.13539124 C150.31935203 500.21309162 147.69814507 499.28749523 145.07788086 498.35913086 C141.71802862 497.16875219 138.35619598 495.98409504 134.99358463 494.80153561 C131.77761986 493.67032673 128.56261141 492.53641917 125.34765625 491.40234375 C124.13940689 490.97630356 122.93115753 490.55026337 121.68629456 490.11131287 C120.57431198 489.71742874 119.46232941 489.32354462 118.31665039 488.91772461 C117.33563858 488.57067978 116.35462677 488.22363495 115.34388733 487.86607361 C113 487 113 487 111 486 C111.50845655 483.71194554 112.09428609 481.8061897 113.125 479.6875 C114.30635089 476.05906512 113.93604992 473.67733898 113 470 C110.90780414 467.02264435 108.98933803 465.99446398 105.75 464.3125 C102.20544156 463.62797996 102.20544156 463.62797996 100.40234375 465.0546875 C99.14861014 466.24844752 97.9067107 467.45467088 96.671875 468.66796875 C74.38193242 488.12278705 40.48604082 498.91188345 11.25 499.23828125 C10.52282776 499.24802979 9.79565552 499.25777832 9.04644775 499.26782227 C-7.65426844 499.44544694 -23.70400289 499.12531333 -40 495 C-40.74040527 494.81276367 -41.48081055 494.62552734 -42.24365234 494.43261719 C-61.64957168 489.31253184 -79.75488313 480.17009078 -95.57421875 467.8828125 C-97.33110332 466.51917584 -99.14952532 465.23364979 -101 464 C-103.95194919 464.38089667 -106.4467718 465.49248065 -109 467 C-111.63213778 470.50951704 -112.03532985 472.3051797 -111.8125 476.6875 C-111.17216516 480.11064735 -111.17216516 480.11064735 -109 483 C-109 483.99 -109 484.98 -109 486 C-115.52460971 488.31133484 -122.04927448 490.62251417 -128.57397461 492.93359375 C-130.78590086 493.71708799 -132.99781526 494.50061567 -135.2097168 495.28417969 C-136.27681885 495.66219727 -137.3439209 496.04021484 -138.44335938 496.4296875 C-139.50366364 496.80534851 -140.5639679 497.18100952 -141.65640259 497.5680542 C-143.77269196 498.31743345 -145.88920698 499.06617577 -148.00595093 499.81427002 C-152.76005758 501.4948084 -157.51169461 503.18106137 -162.25439453 504.89355469 C-163.04350723 505.17689667 -163.83261993 505.46023865 -164.64564514 505.75216675 C-166.0876697 506.27035722 -167.52839825 506.79217517 -168.96751404 507.31838989 C-171.79838654 508.3322175 -173.96528944 509 -177 509 C-176.26998936 504.26371906 -174.59443088 500.01947588 -172.8671875 495.578125 C-172.55226349 494.75987244 -172.23733948 493.94161987 -171.91287231 493.09857178 C-171.24394944 491.36299367 -170.57307498 489.62816665 -169.90039062 487.89404297 C-168.8952322 485.30217016 -167.89628303 482.70797689 -166.8984375 480.11328125 C-162.74643947 469.34632706 -158.44299915 458.65005402 -154 448 C-151.03776042 448.06510417 -148.07552083 448.13020833 -145.11328125 448.1953125 C-141.88923789 447.99305131 -139.81129693 447.58320406 -137 446 C-134.53485625 442.10808495 -133.88137058 438.08743637 -134.375 433.5625 C-136.15913767 429.65112127 -138.36718439 426.49807547 -140.8828125 423.02734375 C-150.31509358 409.54022596 -157.79286116 394.62141651 -163 379 C-169.7818707 373.51589468 -177.66893826 370.5799781 -186.4140625 371.16015625 C-193.25914763 372.37157166 -198.95094234 375.58316276 -203.4375 380.875 C-206 383 -206 383 -207.91697311 383.06128788 C-213.24652824 382.33766911 -218.39153374 381.30950848 -223.59082031 379.93725586 C-224.40235156 379.72843025 -225.21388281 379.51960464 -226.05000591 379.30445099 C-228.72761612 378.61383335 -231.40283868 377.91440454 -234.078125 377.21484375 C-235.98599498 376.72075713 -237.89400297 376.22720316 -239.80213928 375.73414612 C-244.90084519 374.4149562 -249.99750952 373.08803718 -255.09378433 371.75949097 C-260.35721436 370.38870633 -265.62246142 369.02493525 -270.88745117 367.66015625 C-283.2610919 364.45079862 -295.63125231 361.22815894 -308 358 C-308.89587074 357.76618874 -309.79174149 357.53237747 -310.71475983 357.29148102 C-330.14951765 352.21842866 -349.57874533 347.12452482 -369 342 C-369 341.34 -369 340.68 -369 340 C-368.43572863 339.87945283 -367.87145725 339.75890566 -367.29008675 339.63470554 C-353.33049062 336.65246105 -339.37092628 333.67006776 -325.41139412 330.68752384 C-318.0012372 329.10429991 -310.59106925 327.5211276 -303.18086743 325.93811381 C-299.90721344 325.23876685 -296.63357416 324.5393512 -293.35996628 323.83978844 C-286.90013895 322.45938746 -280.44015112 321.07974806 -273.97979736 319.70181274 C-262.32137545 317.21407601 -250.66571274 314.71528406 -239.01855469 312.17529297 C-236.10592541 311.5423846 -233.19320459 310.90989939 -230.28045273 310.27755547 C-227.63583526 309.70127637 -224.99273868 309.11836903 -222.34963989 308.53517151 C-220.77467078 308.19294922 -219.19963259 307.85104461 -217.62451172 307.50952148 C-216.58434214 307.27650361 -216.58434214 307.27650361 -215.52315903 307.03877831 C-211.61629636 306.2003181 -207.99308868 305.85071009 -204 306 C-200 314 -200 314 -199.1171875 316.140625 C-197.70157586 318.49667795 -196.53373467 318.99563671 -194 320 C-193.25363281 320.30421875 -192.50726563 320.6084375 -191.73828125 320.921875 C-185.73246076 322.9721712 -180.91475718 323.6510966 -175 321 C-171.59200497 319.27489521 -168.68934141 317.6362081 -167.16088867 314.00830078 C-166.61704041 311.6141152 -166.25384382 309.24711371 -165.9375 306.8125 C-165.63365843 305.0011305 -165.32096956 303.19122554 -165 301.3828125 C-164.84015625 300.47563477 -164.6803125 299.56845703 -164.515625 298.63378906 C-160.56207217 278.43922089 -150.30632481 255.99623812 -136.8046875 240.4765625 C-134.04601609 236.69085325 -134.34480535 233.50446321 -135 229 C-136.39348223 225.22940102 -137.62370966 224.23038184 -141.0625 222.125 C-144.29061358 220.88020844 -146.83393614 221.02034074 -150.24609375 221.4296875 C-151.58498657 221.5841333 -151.58498657 221.5841333 -152.95092773 221.74169922 C-153.62712158 221.82693848 -154.30331543 221.91217773 -155 222 C-157.15061651 216.49061629 -159.30108033 210.98117301 -161.45141602 205.47167969 C-162.17956641 203.60610429 -162.90775512 201.74054385 -163.63598633 199.875 C-163.9862085 198.9778125 -164.33643066 198.080625 -164.69726562 197.15625 C-165.04751801 196.25912292 -165.39777039 195.36199585 -165.75863647 194.43768311 C-166.46377473 192.63037599 -167.16822234 190.82279926 -167.87197876 189.01495361 C-169.59748915 184.58354174 -171.33225607 180.15629632 -173.08935547 175.73730469 C-173.41636948 174.91007904 -173.74338348 174.08285339 -174.08030701 173.2305603 C-174.69618792 171.67327914 -175.31598531 170.11753923 -175.94032288 168.56362915 C-177.12363688 165.56121416 -178 163.25821682 -178 160 C-170.77219022 161.41013289 -164.12420932 163.63805935 -157.24609375 166.24609375 C-156.14580338 166.65787369 -155.045513 167.06965363 -153.91188049 167.49391174 C-150.41828846 168.80284111 -146.92787452 170.12001807 -143.4375 171.4375 C-141.08939882 172.31890866 -138.74109336 173.19977331 -136.39257812 174.08007812 C-131.13751121 176.05108659 -125.88466965 178.02791691 -120.63302612 180.00802612 C-117.09020568 181.34275854 -113.54532112 182.67192572 -110 184 C-110.50603992 186.16874252 -110.99983813 187.99967627 -112 190 C-112.53596772 194.47225528 -112.53953561 197.96409164 -110.4375 202 C-107.14854555 204.69862929 -105.25635348 204.92705846 -101 205 C-97.93430849 203.72996527 -95.29949136 201.92372586 -92.5625 200.0625 C-90.96670582 199.03413577 -89.36768167 198.01076812 -87.765625 196.9921875 C-86.96705078 196.48268555 -86.16847656 195.97318359 -85.34570312 195.44824219 C-73.56757652 188.17640133 -60.42912514 182.65919641 -47.26953125 178.47265625 C-46.46628418 178.21564941 -45.66303711 177.95864258 -44.83544922 177.69384766 C-43.28286661 177.20414078 -41.72602761 176.72765003 -40.16455078 176.26708984 C-33.81296949 174.28338274 -29.56459698 171.62448525 -26.0625 165.75 C-24.36648301 159.76405767 -24.86645918 155.22509865 -27.6875 149.6875 C-30.2762772 146.6789211 -32.60279347 145.00744022 -36 143 C-35.41146465 136.41728749 -34.22377567 130.28958927 -32.53491211 123.9074707 C-32.28427002 122.93997391 -32.03362793 121.97247711 -31.77539062 120.97566223 C-30.94869227 117.79077737 -30.11310447 114.6082989 -29.27734375 111.42578125 C-28.69206885 109.17894362 -28.10732619 106.93196728 -27.52308655 104.68486023 C-25.9814831 98.76184307 -24.43222208 92.8408544 -22.88146973 86.92022705 C-21.333332 81.00345008 -19.79314183 75.08460562 -18.25195312 69.16601562 C-12.23942932 46.09165407 -6.19385059 23.02643558 0 0 Z M-62 199 C-62.71717395 203.32249895 -63.42908856 207.64582201 -64.13623047 211.9699707 C-64.3773136 213.43960702 -64.6198098 214.90901229 -64.86376953 216.37817383 C-65.21502192 218.4950071 -65.56111456 220.61263063 -65.90625 222.73046875 C-66.11572266 224.00301514 -66.32519531 225.27556152 -66.54101562 226.58666992 C-66.92672009 229.45503911 -67.09642822 232.11438566 -67 235 C-66.12988281 234.94779297 -66.12988281 234.94779297 -65.2421875 234.89453125 C-60.02869081 234.71386552 -56.49661704 235.03881317 -52 238 C-49.98528403 241.02207395 -49.66280966 241.91726699 -49.5625 245.375 C-49.50255859 246.50035156 -49.50255859 246.50035156 -49.44140625 247.6484375 C-50.67650471 252.8479429 -56.14897308 255.98723757 -60.1875 259.125 C-78.97163883 274.39501326 -91.08505298 295.86663409 -94.390625 319.83203125 C-94.5951869 321.88787837 -94.79776291 323.94392289 -95 326 C-95.5 328.875 -95.5 328.875 -97 331 C-101.43165883 333.52556901 -105.71605503 334.38884273 -110.75 333.5625 C-115.46089018 332.25528964 -117.27640669 329.96159027 -120 326 C-120.66 325.34 -121.32 324.68 -122 324 C-125.79091042 326.24096603 -129.58117525 328.48301884 -133.37084961 330.72607422 C-134.65973574 331.48874216 -135.94879678 332.25111457 -137.23803711 333.01318359 C-139.09274797 334.10957144 -140.94682404 335.20702585 -142.80078125 336.3046875 C-143.91622314 336.96452637 -145.03166504 337.62436523 -146.1809082 338.30419922 C-148.14995257 339.48866117 -150.08807844 340.72538563 -152 342 C-152 342.66 -152 343.32 -152 344 C-148.54332085 345.89886062 -145.08435287 347.7935154 -141.625 349.6875 C-140.65949219 350.21794922 -139.69398438 350.74839844 -138.69921875 351.29492188 C-132.53111574 354.66875003 -126.31310604 357.90583288 -120 361 C-119.62875 360.113125 -119.2575 359.22625 -118.875 358.3125 C-116.78007841 354.61147185 -114.86790992 351.83257829 -111 350 C-105.68124148 349.08979579 -101.40519209 349.34758939 -96.5 351.625 C-92.41414324 355.50656393 -90.82594316 360.29702437 -89.01049805 365.55615234 C-84.4666214 378.61721506 -77.68493921 389.05884547 -68 399 C-67.34128906 399.70898438 -66.68257813 400.41796875 -66.00390625 401.1484375 C-62.41282357 404.92015814 -58.96609626 407.68026681 -54.5 410.375 C-50.22675247 413.23695994 -50.22675247 413.23695994 -49.26171875 416.484375 C-49.12670222 421.28812105 -49.75299112 425.28913271 -53 429 C-55.91871074 430.74871031 -58.37789704 431.3274615 -61.75 431.625 C-62.94882812 431.73714844 -62.94882812 431.73714844 -64.171875 431.8515625 C-64.77515625 431.90054688 -65.3784375 431.94953125 -66 432 C-64.3773341 443.47975576 -61.63486248 454.71977732 -59 466 C-47.45107433 460.36714524 -36.18752034 454.31887723 -25 448 C-25 447.34 -25 446.68 -25 446 C-25.639375 445.443125 -26.27875 444.88625 -26.9375 444.3125 C-29.716753 441.19636784 -29.9286237 439.13982532 -30 435 C-27.9375 429.9375 -27.9375 429.9375 -26 428 C-20.61176102 428.12712724 -15.31148247 428.86954944 -10.0625 430.0625 C-0.20270682 432.10887217 8.85371262 430.88067736 18.5546875 428.65625 C21.83038279 428.03230804 24.6779312 427.75680316 28 428 C30.33556118 430.09395141 30.94596187 431.826306 31.875 434.8125 C32.04174286 439.06444295 30.98557185 441.24947539 29 445 C28.34 445.33 27.68 445.66 27 446 C27 446.66 27 447.32 27 448 C30.79016663 450.06526515 34.58240686 452.1266947 38.375 454.1875 C39.96634766 455.0547168 39.96634766 455.0547168 41.58984375 455.93945312 C48.0004118 459.42003762 54.44923749 462.79065835 61 466 C62.00103953 461.64099011 62.99783887 457.28103897 63.99072266 452.92016602 C64.32907642 451.436827 64.66858682 449.95375132 65.00927734 448.47094727 C65.49881544 446.33938708 65.98418429 444.20691405 66.46875 442.07421875 C66.76201172 440.79119873 67.05527344 439.50817871 67.35742188 438.1862793 C68.09884515 435.05160574 68.09884515 435.05160574 68 432 C67.40832031 431.96261719 66.81664062 431.92523438 66.20703125 431.88671875 C61.46033751 431.49180622 57.80972926 431.11705121 54 428 C51.78756914 424.26702574 51.0891447 420.95228251 51.18359375 416.6328125 C52.63487063 411.95261815 56.57819628 410.09705557 60.5 407.4609375 C77.26864189 396.08489577 87.9020344 377.98298058 93.5625 358.875 C94.77643429 354.98751995 96.47087235 353.17177086 100 351 C104.00156182 348.99921909 108.66066305 349.3664329 113 350 C117.9111113 352.58570878 120.16214991 355.83819136 122 361 C132.88272567 355.68888255 143.49985009 350.03200101 154 344 C154 343.34 154 342.68 154 342 C151.7027079 340.33047322 151.7027079 340.33047322 148.7421875 338.62890625 C147.64132812 337.97212891 146.54046875 337.31535156 145.40625 336.63867188 C144.53613281 336.12711548 144.53613281 336.12711548 143.6484375 335.60522461 C141.8992312 334.57674717 140.15616145 333.5385083 138.4140625 332.49804688 C133.34603073 329.48963965 128.29773247 326.58867594 123 324 C122.13375 325.3921875 122.13375 325.3921875 121.25 326.8125 C118.34221955 330.93185564 116.6797799 332.53888395 111.8125 333.875 C107.2021269 334.02615977 102.98527334 333.45122718 99 331 C97.01242139 327.35183152 96.62499691 323.77881728 96.1875 319.6875 C92.68438168 294.21027582 79.85589978 273.14766723 60 257 C57.694183 255.2905874 55.34936326 253.64955293 53 252 C51.26234457 248.52468913 51.40414648 244.7911999 52 241 C54.52968474 237.71824682 56.07731331 236.30756223 60 235 C61.56118428 234.93259135 63.1250252 234.91485544 64.6875 234.9375 C65.82989136 234.9540564 65.82989136 234.9540564 66.99536133 234.97094727 C67.98765747 234.98532837 67.98765747 234.98532837 69 235 C68.38716379 226.85920244 67.27232142 218.8638787 65.9375 210.8125 C65.75123047 209.66974609 65.56496094 208.52699219 65.37304688 207.34960938 C64.91878934 204.56582605 64.46105399 201.78266429 64 199 C56.74127513 202.86971377 49.83037117 207.20387213 42.9375 211.6875 C41.88111328 212.36361328 40.82472656 213.03972656 39.73632812 213.73632812 C38.73923828 214.38408203 37.74214844 215.03183594 36.71484375 215.69921875 C35.80855225 216.28533936 34.90226074 216.87145996 33.96850586 217.4753418 C33.31889893 217.978479 32.66929199 218.48161621 32 219 C32 219.66 32 220.32 32 221 C32.639375 221.5775 33.27875 222.155 33.9375 222.75 C36.54624202 225.59590038 36.84957035 227.16404405 37 231 C36.25 234.8125 36.25 234.8125 35 238 C29.19940977 239.93353008 24.44185229 239.01397945 18.8125 237 C6.0093458 233.18223304 -7.39943852 233.63234571 -19.95703125 238.125 C-24.5330794 239.44083413 -28.48229263 239.50590246 -33 238 C-34.61256204 234.48853313 -35.37737536 230.67653642 -34.5234375 226.8828125 C-32.65143603 222.32571802 -32.65143603 222.32571802 -30 221 C-30 220.34 -30 219.68 -30 219 C-32.50936779 217.22278432 -35.02071348 215.56545684 -37.625 213.9375 C-39.1797033 212.95054572 -40.73439054 211.96356614 -42.2890625 210.9765625 C-43.07571289 210.4805957 -43.86236328 209.98462891 -44.67285156 209.47363281 C-46.86167439 208.08759267 -49.03872196 206.68532581 -51.2109375 205.2734375 C-51.85208496 204.85715088 -52.49323242 204.44086426 -53.15380859 204.01196289 C-54.36823886 203.22295259 -55.58212207 202.43309953 -56.79541016 201.64233398 C-59.21134198 199.79217944 -59.21134198 199.79217944 -62 199 Z " fill="#000000" transform="translate(511,12)"/>
<path d="M0 0 C4.48423028 1.36623607 8.42596153 3.17971075 12.5625 5.375 C32.19747245 15.46573894 51.03903691 17.02931178 72 11 C79.81869905 8.44560564 87.30605781 5.19557964 94.265625 0.78515625 C96 0 96 0 99 1 C100.13153187 3.69898175 101.03713012 6.26997341 101.875 9.0625 C102.13112061 9.89507324 102.38724121 10.72764648 102.65112305 11.58544922 C107.51742631 27.96882055 111.10626251 44.90949079 111.203125 62.0390625 C111.21013931 62.87433975 111.21715363 63.709617 111.22438049 64.57020569 C111.24180081 67.25519256 111.2482341 69.93995866 111.25 72.625 C111.25067474 73.54350739 111.25134949 74.46201477 111.25204468 75.40835571 C111.23562715 89.47571969 110.72078473 103.15925756 108 117 C107.82307617 117.92748047 107.64615234 118.85496094 107.46386719 119.81054688 C104.04834641 137.28338376 98.63815286 152.55215859 90.04980469 168.09375 C79.14197387 187.9003414 74.60733617 205.71662043 77.73046875 228.42578125 C78.18304618 232.67565501 78.18304618 232.67565501 76.6640625 235.3671875 C75.99117187 235.86476563 75.31828125 236.36234375 74.625 236.875 C73.52091797 237.69484375 73.52091797 237.69484375 72.39453125 238.53125 C62.00132879 244.90619963 51.27285411 246.51550801 39.1796875 244.5390625 C32.12751864 242.65995794 24.65448704 238.76972883 20 233 C19.91479492 230.89526367 19.91479492 230.89526367 20.29296875 228.48046875 C23.45433972 204.62098361 18.18756377 186.5049132 6.69140625 165.84375 C-1.85591135 150.36544599 -6.81334104 134.35787703 -10 117 C-10.22647217 115.82679199 -10.22647217 115.82679199 -10.45751953 114.62988281 C-13.0065515 100.91955551 -13.31268647 87.21423905 -13.375 73.3125 C-13.38285522 72.4563913 -13.39071045 71.60028259 -13.39880371 70.7182312 C-13.51548742 54.3686123 -11.79723386 38.32844037 -7.5625 22.5 C-7.35077148 21.68104248 -7.13904297 20.86208496 -6.92089844 20.01831055 C-2.24362692 2.24362692 -2.24362692 2.24362692 0 0 Z " fill="#000000" transform="translate(463,580)"/>
<path d="M0 0 C0.66 0 1.32 0 2 0 C2.64995297 1.41478135 3.29478722 2.83191487 3.9375 4.25 C4.47697266 5.43335938 4.47697266 5.43335938 5.02734375 6.640625 C7.56382004 12.79336266 8.21020345 19.80073983 6.3515625 26.25 C1.41618032 37.04878494 -9.06115145 43.41305557 -19.8046875 47.515625 C-32.36269289 51.94350298 -44.77882617 52.78664511 -58 51 C-48.618776 54.36761887 -40.62272717 55.16056881 -30.6875 54.8125 C-16.8377374 54.44601397 -16.8377374 54.44601397 -10.88671875 59.95703125 C-9.95279297 60.96830078 -9.95279297 60.96830078 -9 62 C-8.30519531 62.60199219 -7.61039063 63.20398438 -6.89453125 63.82421875 C4.38706435 73.92050599 10.34167708 89.05673053 11.23828125 103.9609375 C11.75779154 124.41201673 5.96700512 142.9704301 -7.6328125 158.59375 C-12.73403324 163.7791493 -18.48941288 168.68087716 -25 172 C-25.99 171.67 -26.98 171.34 -28 171 C-27.48050781 170.40574219 -26.96101562 169.81148437 -26.42578125 169.19921875 C-15.67507681 156.42157927 -12.70913971 144.38020808 -14 128 C-16.72655231 113.15197511 -25.48566452 100.3260663 -37.5625 91.375 C-43.06695055 87.73096839 -48.97613023 84.92961772 -54.89453125 82.03515625 C-72.90493064 73.18057356 -85.96239989 62.93153746 -94 44 C-96.28527432 37.02772993 -96.20676726 27.90615444 -93.4375 21.125 C-89.27116575 13.24551172 -82.06980819 5.16642525 -73.515625 2.11328125 C-71 2 -71 2 -68.9296875 3.4765625 C-67.91261719 4.54003906 -67.91261719 4.54003906 -66.875 5.625 C-62.0585057 10.21672456 -57.17892807 12.65561408 -51 15 C-49.3603125 15.6496875 -49.3603125 15.6496875 -47.6875 16.3125 C-33.23444225 19.00713789 -20.48116882 15.98191496 -8.3828125 7.81640625 C-5.27766785 5.44936975 -2.68741966 2.82523605 0 0 Z " fill="#000000" transform="translate(549,817)"/>
<path d="M0 0 C10.63783527 7.16929144 18.28878595 16.63332787 21.11328125 29.3046875 C22.84390612 43.56288064 21.09664099 56.03172334 12.30078125 67.7421875 C4.82309369 76.39834739 -5.48755055 83.37203149 -17.13061523 84.52734375 C-33.14197085 85.28535508 -45.51964627 83.28284261 -57.88671875 72.3046875 C-67.26202331 62.94538176 -71.33514565 52.42504976 -71.51171875 39.3046875 C-71.33401985 26.1006718 -67.18591449 15.81091543 -57.88671875 6.3046875 C-42.27836489 -7.72767723 -18.24240156 -10.71339956 0 0 Z " fill="#000000" transform="translate(536.88671875,305.6953125)"/>
<path d="M0 0 C4.21614205 0.30298187 7.76992948 1.31866625 11.671875 2.83984375 C12.37256104 3.11014404 13.07324707 3.38044434 13.79516602 3.65893555 C19.80238239 6.07663422 24.90140871 9.0821415 29.859375 13.27734375 C31.02726562 14.24414062 31.02726562 14.24414062 32.21875 15.23046875 C41.42657402 23.57312809 46.84747751 34.90970778 47.859375 47.27734375 C47.96378906 48.52257812 47.96378906 48.52257812 48.0703125 49.79296875 C48.43930272 58.81903721 46.49076165 67.62211301 40.55859375 74.6171875 C35.31075286 79.74438837 30.23727291 80.67073287 22.984375 80.77734375 C12.02878867 80.60490403 5.05516841 77.39531292 -2.81640625 69.8203125 C-13.48631511 58.14617693 -17.04128056 44.94317952 -16.45703125 29.453125 C-15.87033726 20.02606712 -12.31855912 13.05801603 -7.140625 5.27734375 C-6.50125 4.24609375 -5.861875 3.21484375 -5.203125 2.15234375 C-3.140625 0.27734375 -3.140625 0.27734375 0 0 Z " fill="#000000" transform="translate(477.140625,904.72265625)"/>
<path d="M0 0 C4.71624206 0.6829783 8.73052718 2.49384636 13.0625 4.375 C19.93005947 7.27988176 26.66172649 9.55772926 34 11 C35.11375 11.226875 36.2275 11.45375 37.375 11.6875 C56.34123555 13.32252031 73.70216135 9.25092868 90.72265625 0.953125 C93 0 93 0 96 0 C96.54599066 10.66198431 95.92991085 18.12142332 89.375 26.6875 C79.71682394 37.14447257 64.71620577 41.06811341 51 42 C34.99655557 42 19.65147858 38.75242524 7.5 27.7109375 C2.02538526 21.46645506 -0.13758665 14.99694463 -0.0625 6.8125 C-0.05347656 5.54019531 -0.04445313 4.26789062 -0.03515625 2.95703125 C-0.02355469 1.98121094 -0.01195312 1.00539063 0 0 Z " fill="#000000" transform="translate(464,521)"/>
<path d="M0 0 C0.41507812 0.35191406 0.83015625 0.70382812 1.2578125 1.06640625 C15.48789421 12.46833364 31.80268454 17.44197477 50 16 C63.56846745 14.31908495 75.55789713 8.85308722 86 0 C89.19803166 2.63837612 90.82219766 4.21470631 91.75 8.3125 C90.64729179 13.73414871 88.25830547 16.5375759 84 20 C65.40713139 31.38756378 43.55969849 33.80290158 22.47265625 28.9765625 C12.26081345 26.10484068 0.6391313 21.63351596 -5 12 C-5.5625 8.5 -5.5625 8.5 -5 5 C-2.5 2.0625 -2.5 2.0625 0 0 Z " fill="#000000" transform="translate(469,552)"/>
<path d="M0 0 C0.66 0.33 1.32 0.66 2 1 C4.58570407 9.65093585 4.97004135 19.20573542 3 28 C-0.64780618 24.4627334 -3.97993585 20.75360964 -7.25390625 16.8671875 C-8.96808589 14.91740995 -8.96808589 14.91740995 -11.21484375 13.3828125 C-11.80394531 12.92648437 -12.39304687 12.47015625 -13 12 C-13 11.34 -13 10.68 -13 10 C-10.56512381 8.40111319 -8.03094039 7.03870019 -5.48046875 5.6328125 C-2.97984954 3.98673561 -1.62136329 2.48860412 0 0 Z " fill="#000000" transform="translate(552,857)"/>
</svg>
