<svg xmlns="http://www.w3.org/2000/svg" viewBox="0 0 1024 1024" style="height: 1024px; width: 1024px;">
<path d="M0 0 C3.36559314 1.39924512 4.89713624 2.86107171 6.8828125 5.89453125 C7.40488281 6.67828125 7.92695312 7.46203125 8.46484375 8.26953125 C9.01269531 9.10871094 9.56054688 9.94789062 10.125 10.8125 C13.92958517 16.51512207 17.7526376 22.11768667 22 27.5 C26.63857037 33.40704673 30.83937536 39.55953801 35.04296875 45.78125 C38.56152465 50.9643218 42.20056723 56.01976436 46 61 C50.3567325 66.71291103 54.47722986 72.54737531 58.5 78.5 C63.01084233 85.17205012 67.68063047 91.67455941 72.55297852 98.08642578 C76.62921692 103.4638193 80.54651294 108.9400496 84.40136719 114.47802734 C87.09455914 118.33850586 89.84177454 122.14268102 92.6796875 125.8984375 C93.28562744 126.70877441 93.89156738 127.51911133 94.51586914 128.35400391 C95.69030197 129.92023353 96.87657006 131.47767615 98.07592773 133.02490234 C101.9747988 138.25711234 101.9747988 138.25711234 102.08984375 141.6484375 C100.7228549 144.59799767 99.07301169 147.18160303 97.25 149.875 C86.85954273 166.03302188 85.80636167 184.4432592 85.26596069 203.14248657 C85.2112699 204.8350244 85.15589936 206.52754037 85.09991515 208.22003591 C84.94923037 212.83490977 84.80817485 217.45003367 84.66880989 222.06526136 C84.51632106 227.05858436 84.35480432 232.05161678 84.19447327 237.04469299 C83.88201905 246.82042291 83.57794827 256.59639624 83.27687334 266.37248255 C83.03137204 274.3385849 82.7827296 282.3045836 82.53187943 290.27051926 C82.49607071 291.4076935 82.46026199 292.54486775 82.42336816 293.71650182 C82.35057836 296.02758343 82.27778039 298.33866477 82.20497437 300.64974587 C81.52277848 322.31568618 80.84999342 343.98191081 80.18053706 365.648248 C79.60876435 384.14658027 79.02943099 402.6446626 78.44433594 421.14257812 C77.76283752 442.68848956 77.08587614 464.23453564 76.41608775 485.78081453 C76.34422589 488.09221242 76.27235967 490.40361017 76.20048904 492.71500778 C76.16514559 493.85179238 76.12980213 494.98857698 76.09338766 496.1598096 C75.84686063 504.0797795 75.59725856 511.99964889 75.34641647 519.91948318 C75.0390852 529.62602002 74.73690699 539.3327026 74.44076632 549.03958751 C74.29021191 553.97069864 74.13771366 558.90172398 73.97896385 563.83257866 C73.5813833 576.22040826 73.23905583 588.60803014 73 601 C72.9813212 601.95691504 72.9626424 602.91383008 72.94339758 603.89974254 C72.83135586 609.88495409 72.7501471 615.86960717 72.70362337 621.85569195 C72.6864641 623.74411628 72.66266723 625.63249487 72.63143735 627.52073891 C72.28638854 649.49510311 77.63119849 668.58924584 93 685 C97.66645081 689.57105488 102.50991553 693.48071508 108 697 C108 697.33 108 697.66 108 698 C89.58797825 697.91148066 73.79933841 687.27423734 61 675 C60.33871094 674.39027344 59.67742187 673.78054688 58.99609375 673.15234375 C51.14342356 665.70672342 47.70592292 657.27568189 44.35546875 647.10546875 C44.15043543 646.48350428 43.94540211 645.8615398 43.73415565 645.22072792 C42.64383269 641.90390396 41.56899407 638.58247765 40.50512695 635.25708008 C39.64620787 632.58188672 38.75938433 629.91899069 37.84301758 627.26293945 C32.7193242 612.38539822 29.33256312 598.88360906 29.66870117 583.04248047 C29.68597689 581.52694329 29.70196085 580.01139094 29.71677208 578.49582767 C29.774181 573.66288526 29.88065752 568.83176703 30 564 C30.02891457 562.80881337 30.02891457 562.80881337 30.05841327 561.59356236 C30.35581057 549.62253832 30.77612732 537.6564448 31.21633124 525.68995595 C31.39681316 520.74297091 31.56981257 515.79572348 31.7434845 510.84849548 C32.00500639 503.41413679 32.26855995 495.97985535 32.5345872 488.5456565 C33.05620797 473.96141665 33.55977663 459.37659797 34.05688477 444.79150391 C34.13564889 442.4827486 34.21441509 440.17399336 34.29318333 437.86523819 C34.45240632 433.19668605 34.61153279 428.52813064 34.77060509 423.85957336 C35.17709673 411.93124373 35.58439524 400.00294214 35.99365234 388.07470703 C36.03462882 386.88020479 36.07560529 385.68570254 36.11782348 384.45500326 C36.7852622 365.02230668 37.47883401 345.59061688 38.18069267 326.15913689 C38.90295497 306.14307029 39.59340772 286.12607947 40.25527954 266.10792446 C40.66360934 253.79074419 41.0971973 241.47498592 41.56357247 229.15986449 C41.8801843 220.73891392 42.16622627 212.31727373 42.42821831 203.89444822 C42.58016983 199.0392138 42.74564424 194.18544086 42.94776344 189.33201408 C43.13261882 184.88627757 43.27860726 180.44098553 43.39430976 175.99292767 C43.44281828 174.38830083 43.5053525 172.78402067 43.58365273 171.18057144 C44.09947191 160.40670844 42.36617096 154.11644091 35 146 C34.10293859 144.76046227 33.22195489 143.50867496 32.375 142.234375 C31.98658936 141.665979 31.59817871 141.09758301 31.19799805 140.51196289 C30.80265869 139.93051514 30.40731934 139.34906738 30 138.75 C24.60145812 130.85167933 19.13654232 123.00037339 13.65820312 115.15722656 C13.01173828 114.23006836 12.36527344 113.30291016 11.69921875 112.34765625 C11.0757959 111.45449707 10.45237305 110.56133789 9.81005859 109.64111328 C7.54418548 106.33490673 5.37707221 102.96899049 3.23754883 99.57983398 C2.82915771 99.05848877 2.4207666 98.53714355 2 98 C1.34 98 0.68 98 0 98 C-1.25421526 99.42942455 -1.25421526 99.42942455 -2.4765625 101.34765625 C-2.97430176 102.08653076 -3.47204102 102.82540527 -3.98486328 103.58666992 C-4.5261084 104.40369385 -5.06735352 105.22071777 -5.625 106.0625 C-6.80106004 107.81058471 -7.97819126 109.55794912 -9.15625 111.3046875 C-10.09210938 112.6963916 -10.09210938 112.6963916 -11.046875 114.11621094 C-13.68920396 118.01760965 -16.37774483 121.88558648 -19.07763672 125.74731445 C-20.44953416 127.71747435 -21.81046683 129.69531217 -23.16064453 131.68041992 C-26.07594489 135.94821217 -28.94137945 140.06289443 -32.4609375 143.85546875 C-39.96750767 152.24649511 -40.62871908 159.63970668 -40.35009766 170.68814087 C-40.32969391 172.15052165 -40.31098068 173.61292686 -40.29383278 175.07534945 C-40.2302078 179.71787008 -40.1172481 184.35857571 -40 189 C-39.96528971 190.48965081 -39.93083936 191.9793077 -39.89665985 193.46897078 C-39.65695895 203.65506334 -39.33000877 213.83771117 -38.98548412 224.02072001 C-38.83423933 228.52787874 -38.68941321 233.03524493 -38.54376221 237.54258728 C-38.29172466 245.3177632 -38.03596587 253.09280905 -37.77764893 260.86777878 C-37.40303261 272.14645013 -37.03558999 283.42534721 -36.66996169 294.70431311 C-36.0747027 313.06439061 -35.47554383 331.42433833 -34.87304688 349.78417969 C-34.8371595 350.87781781 -34.80127212 351.97145594 -34.76429725 353.09823461 C-34.43683238 363.0763074 -34.10910058 373.05437143 -33.78128052 383.03243256 C-33.56310362 389.67331219 -33.34499246 396.31419398 -33.12695312 402.95507812 C-33.09110918 404.04674248 -33.05526523 405.13840684 -33.0183351 406.26315193 C-32.41762672 424.56252494 -31.8214244 442.86204211 -31.22839546 461.16166556 C-30.86424722 472.39205122 -30.49620798 483.62229573 -30.12285471 494.85237922 C-29.86676849 502.56315078 -29.61483617 510.27405132 -29.36596251 517.98505901 C-29.22304268 522.40885885 -29.0783975 526.83258166 -28.92850494 531.2561512 C-28.55970521 542.16961461 -28.24047312 553.08292527 -28 564 C-27.98200592 564.78064168 -27.96401184 565.56128337 -27.94547248 566.36558086 C-27.8386297 571.10785012 -27.7585247 575.84944481 -27.71251655 580.59270544 C-27.69578839 582.05363956 -27.67254248 583.51451883 -27.64167047 584.97522251 C-27.32626163 600.63028448 -31.35652359 614.38389536 -36.3996582 629.09765625 C-37.29942261 631.76480319 -38.14647659 634.44750512 -38.99320316 637.13187504 C-39.82821233 639.77000078 -40.68276688 642.4014352 -41.54440117 645.03097343 C-42.1373848 646.84066156 -42.72386072 648.65247811 -43.31007385 650.46437073 C-46.77762737 660.57441809 -52.12543293 668.7259625 -59.75 676.1875 C-60.26095215 676.691604 -60.7719043 677.19570801 -61.29833984 677.71508789 C-66.0643361 682.28501003 -71.2138049 685.8158808 -77 689 C-77.80953125 689.45890625 -78.6190625 689.9178125 -79.453125 690.390625 C-87.62637099 694.7672664 -96.62896758 698.37876927 -106 698 C-103.23461332 695.12654074 -100.35698273 692.66579471 -97.1875 690.25 C-82.45236137 678.5224741 -73.01617794 660.88249833 -70.64519519 642.20501512 C-69.83637821 632.63091379 -70.07889774 623.18583048 -70.39778137 613.59901428 C-70.45383273 611.75812925 -70.50927233 609.9172255 -70.56415766 608.07630533 C-70.71587096 603.04739342 -70.87628948 598.0187921 -71.03821814 592.99020016 C-71.21169923 587.55536471 -71.37706639 582.12028135 -71.54350281 576.68522644 C-71.87052378 566.04940723 -72.20514831 555.41384039 -72.54255608 544.77834613 C-72.81673794 536.13182603 -73.08822185 527.48522513 -73.35779381 518.8385601 C-73.39620691 517.60655248 -73.43462001 516.37454486 -73.47419715 515.10520367 C-73.55223049 512.60216201 -73.63025854 510.09912019 -73.70828136 507.59607821 C-74.41893308 484.808167 -75.13762513 462.0205152 -75.8596249 439.23296108 C-76.51794691 418.45346403 -77.16854848 397.6737385 -77.81274414 376.89379883 C-78.53733121 353.52141439 -79.26704962 330.14919892 -80.0046913 306.77722257 C-80.0833881 304.28323384 -80.16207733 301.78924487 -80.2407589 299.29525566 C-80.29882556 297.45477311 -80.29882556 297.45477311 -80.35806528 295.57710909 C-80.63004882 286.94491374 -80.89836549 278.31260891 -81.1652317 269.68025398 C-81.49071937 259.15451313 -81.82175952 248.62896434 -82.15986113 238.10362083 C-82.33210985 232.7369773 -82.50189617 227.37028686 -82.66487503 222.00335312 C-82.81433653 217.08386621 -82.97108 212.16466547 -83.13346573 207.24558871 C-83.1907479 205.47260868 -83.24544297 203.69954262 -83.29718731 201.92639232 C-83.88355036 181.94650114 -85.87612069 163.72437808 -97.328125 146.8046875 C-100.10238519 142.15067157 -100.10238519 142.15067157 -100 139 C-98.43767837 136.03418197 -96.42256097 133.45812226 -94.375 130.8125 C-93.16366668 129.19430664 -91.95274028 127.57580861 -90.7421875 125.95703125 C-90.11795898 125.13283691 -89.49373047 124.30864258 -88.85058594 123.45947266 C-86.008169 119.68183304 -83.25621659 115.84071964 -80.5 112 C-79.41849317 110.5009236 -78.33645994 109.00222684 -77.25390625 107.50390625 C-76.71781738 106.76156738 -76.18172852 106.01922852 -75.62939453 105.25439453 C-73.99280851 102.99005001 -72.35408835 100.72726419 -70.71484375 98.46484375 C-64.93074391 90.47727731 -59.19197239 82.46137871 -53.51928711 74.39428711 C-49.34744926 68.47020892 -45.10686623 62.59759925 -40.85546875 56.73046875 C-37.20004235 51.67917547 -33.58658208 46.60036462 -30 41.5 C-20.17707269 27.53862719 -10.11847675 13.74815077 0 0 Z " fill="#000000" transform="translate(511,18)"/>
<path d="M0 0 C4.18999842 1.39666614 5.00963678 4.28846157 6.9375 8 C13.91027077 20.89823634 22.57961055 32.77942481 32 44 C32.42716309 44.51594727 32.85432617 45.03189453 33.29443359 45.56347656 C40.73504546 54.53772862 48.6379726 62.88074114 57 71 C55.56897983 75.70947496 52.82041163 78.55740564 49.36328125 81.89453125 C48.52678291 82.72110481 48.52678291 82.72110481 47.67338562 83.56437683 C45.89341519 85.32103016 44.10361537 87.06721789 42.3125 88.8125 C39.97145114 91.10682389 37.63473437 93.4054904 35.30078125 95.70703125 C34.73594528 96.26323151 34.17110931 96.81943176 33.5891571 97.39248657 C30.14093954 100.80808729 26.8882152 104.32087382 23.74633789 108.0222168 C19.89789717 112.38069831 15.69141057 116.40973295 11.5625 120.5 C10.64017578 121.4178125 9.71785156 122.335625 8.76757812 123.28125 C6.51400101 125.52315055 4.25810925 127.762666 2 130 C-1.88388656 128.4181616 -4.50166062 125.77190147 -7.39453125 122.8359375 C-7.90497482 122.32503571 -8.4154184 121.81413391 -8.94132996 121.28775024 C-10.02031057 120.20575408 -11.09686524 119.12133401 -12.17114258 118.03466797 C-13.79141795 116.39631724 -15.41936932 114.76593063 -17.04882812 113.13671875 C-21.93281719 108.23547442 -26.69019616 103.28243433 -31.18725586 98.02001953 C-35.64436003 93.05327476 -40.54441966 88.4749006 -45.33691406 83.83447266 C-46.74948458 82.46417476 -48.1522407 81.08378237 -49.5546875 79.703125 C-50.38468262 78.89520508 -51.21467773 78.08728516 -52.06982422 77.25488281 C-54.95612382 73.88303066 -54.95612382 73.88303066 -55 71 C-53.78759766 69.25170898 -53.78759766 69.25170898 -51.9140625 67.49609375 C-51.23480713 66.84342529 -50.55555176 66.19075684 -49.85571289 65.51831055 C-49.11957764 64.83164307 -48.38344238 64.14497559 -47.625 63.4375 C-41.21293125 57.25321096 -35.49048146 51.01920375 -30 44 C-29.30132812 43.18015625 -28.60265625 42.3603125 -27.8828125 41.515625 C-17.0548278 28.79948638 -8.40411723 14.38886738 0 0 Z " fill="#000000" transform="translate(511,683)"/>
<path d="M0 0 C14.22094433 0.8204391 27.32474935 8.88576339 37 19 C39.76126341 17.73243727 41.80405572 16.39979079 44 14.3125 C52.5786248 6.83135385 64.37415142 0 76 0 C75.28970087 4.20592853 73.98567027 8.04637262 72.5625 12.0625 C64.81546416 35.03474795 65.99617359 60.60109294 75.01171875 83.046875 C75.99407323 85.98228998 76.3811164 87.94076838 76 91 C71.62322833 99.38419553 61.3146708 104.44169788 52.8125 107.4375 C39.51114409 111.08235553 26.22298199 109.78931199 13.9609375 103.421875 C2.28664773 96.43618139 2.28664773 96.43618139 0 91 C0.34243115 85.69554764 1.85523785 80.84702269 3.4375 75.8125 C10.37101358 52.63794405 10.55164297 28.05799246 0.98828125 5.57421875 C0 3 0 3 0 0 Z " fill="#000000" transform="translate(474,820)"/>
<path d="M0 0 C3.46539175 0.62244911 6.65695474 1.50702044 9.96484375 2.70703125 C41.44386095 13.84400247 72.50893541 16.67320276 105.51513672 11.36376953 C109.66104259 10.75683303 113.82741745 10.37276034 118 10 C112.62903226 16.33498759 112.62903226 16.33498759 110.01953125 19.09375 C103.96367487 25.53568101 98.92314172 32.49603023 93.89453125 39.75390625 C93.40662109 40.44411865 92.91871094 41.13433105 92.41601562 41.84545898 C90.95173751 43.97990381 90.95173751 43.97990381 89.83398438 46.34399414 C86.55227369 52.50744102 82.80486098 54.40952341 76.20739746 56.48320007 C74.82277145 56.89492857 73.43548757 57.29780472 72.04592896 57.69256592 C68.3056219 58.76065422 64.60235576 59.94606788 60.89453125 61.12109375 C60.14177414 61.35725403 59.38901703 61.59341431 58.6134491 61.83673096 C34.24733522 69.57399028 10.13083323 81.38835206 -11.6015625 94.78393555 C-12.39304687 95.18523682 -13.18453125 95.58653809 -14 96 C-14.66 95.67 -15.32 95.34 -16 95 C-9.76541188 87.55523187 -2.87405785 80.80201494 4.02978516 73.99072266 C9.26607431 68.81831118 14.40548679 63.63743942 19.18994141 58.03710938 C23.07172531 53.66840086 27.28727732 49.61137971 31.4375 45.5 C32.35982422 44.5821875 33.28214844 43.664375 34.23242188 42.71875 C36.48599899 40.47684945 38.74189075 38.237334 41 36 C39.94941406 35.43152344 38.89882813 34.86304688 37.81640625 34.27734375 C23.10280209 26.22686776 8.99812571 16.58316926 0 2 C0 1.34 0 0.68 0 0 Z " fill="#000000" transform="translate(551,719)"/>
<path d="M0 0 C-1.42979578 4.46913309 -3.88823767 7.46480138 -7.0625 10.8125 C-7.80439575 11.60188965 -7.80439575 11.60188965 -8.5612793 12.40722656 C-15.96482998 20.2004378 -23.33678872 26.10959204 -32.765625 31.23828125 C-35.55844673 32.75949212 -38.27965251 34.35455395 -41 36 C-40.24904053 36.74572266 -39.49808105 37.49144531 -38.72436523 38.25976562 C-35.9056626 41.06019739 -33.09041081 43.86407745 -30.27612305 46.66894531 C-29.06382752 47.87625065 -27.8506313 49.08265234 -26.63647461 50.28808594 C-20.85149924 56.03257363 -15.11616326 61.73891733 -9.83129883 67.95263672 C-7.42809926 70.63937603 -4.88218589 73.17325087 -2.3203125 75.70703125 C-1.81744217 76.20439789 -1.31457184 76.70176453 -0.79646301 77.21420288 C1.29264644 79.27557135 3.38543396 81.33312086 5.48242188 83.38647461 C7.03169703 84.90564604 8.57476897 86.43090331 10.1171875 87.95703125 C11.48786377 89.30244995 11.48786377 89.30244995 12.88623047 90.67504883 C15 93 15 93 16 96 C11.26776547 94.60774197 7.22550813 92.55025911 3 90.0625 C-17.99819916 78.04594763 -40.02819085 67.56485647 -63.17578125 60.40234375 C-63.85663788 60.18865646 -64.53749451 59.97496918 -65.23898315 59.75480652 C-68.54111436 58.72088859 -71.84646269 57.72270613 -75.17773438 56.78686523 C-82.25030887 54.62553603 -86.25293266 52.84612962 -89.85913086 46.24804688 C-90.23561768 45.50619141 -90.61210449 44.76433594 -91 44 C-91.76239645 42.83592092 -92.54491658 41.68464668 -93.3515625 40.55078125 C-94.10179687 39.48214844 -94.85203125 38.41351562 -95.625 37.3125 C-100.54906829 30.37390989 -106.00718299 23.96451958 -111.62353516 17.58203125 C-113.79190183 15.08983259 -115.89505134 12.54587598 -118 10 C-113.00535648 10.44619968 -108.04198255 10.95729685 -103.08984375 11.75390625 C-70.8410274 16.89796592 -38.37083964 14.05989351 -7.98461914 1.87963867 C-5.143675 0.74467832 -3.09459609 0 0 0 Z " fill="#000000" transform="translate(473,719)"/>
<path d="M0 0 C4.85079568 0.61573567 9.1120309 2.07613564 13.625 3.875 C41.69648753 14.58770381 74.02836012 15.08367248 101.75 2.75 C102.85859375 2.22921875 103.9671875 1.7084375 105.109375 1.171875 C108 0 108 0 112 0 C111.52899016 16.13208692 107.28629443 28.70657798 95.45703125 40.015625 C83.70396859 49.50776464 71.15313407 53.59107041 56.125 53.4375 C55.0721582 53.42920166 54.01931641 53.42090332 52.93457031 53.41235352 C37.69398657 53.08159942 25.00984914 47.85337708 13.6875 37.4375 C4.66216909 27.87442796 0.00609719 15.92221896 -0.125 2.8125 C-0.08375 1.884375 -0.0425 0.95625 0 0 Z " fill="#000000" transform="translate(456,947)"/>
<path d="M0 0 C7.91856543 4.57269272 12.61644231 10.13100276 16.0625 18.5 C18.35097212 31.19061815 16.56971668 43.05184146 9.51953125 53.91015625 C-5.36102926 74.1122417 -33.07964114 82.6152304 -55.5625 91.5 C-57.38720825 92.22292236 -57.38720825 92.22292236 -59.2487793 92.96044922 C-60.37968994 93.40018066 -61.51060059 93.83991211 -62.67578125 94.29296875 C-63.68036377 94.68379639 -64.68494629 95.07462402 -65.7199707 95.47729492 C-68.25 96.3125 -68.25 96.3125 -71.25 96.3125 C-66.23799979 84.81758649 -54.50617841 75.34499408 -45.80322266 66.56817627 C-44.6526146 65.40768396 -43.50429473 64.244918 -42.35839844 63.07977295 C-31.10608582 51.66258679 -31.10608582 51.66258679 -24.0612793 47.59448242 C-19.94605906 44.68182284 -17.80562185 39.97936556 -16.25 35.3125 C-17.301875 35.0340625 -17.301875 35.0340625 -18.375 34.75 C-23.15357424 32.36071288 -26.56170965 28.37737106 -28.25 23.3125 C-28.98964159 16.4859719 -28.38375281 10.92430978 -24.25 5.3125 C-17.55042837 -1.67637131 -9.18290723 -4.38797879 0 0 Z " fill="#000000" transform="translate(726.25,664.6875)"/>
<path d="M0 0 C5.15449949 2.73018544 8.37741687 6.59510303 11.27734375 11.56640625 C12.63449534 16.9950126 12.64301553 22.24199847 10.90234375 27.56640625 C8.41932759 31.09068725 5.53620416 33.88960231 1.96484375 36.31640625 C1.30484375 36.31640625 0.64484375 36.31640625 -0.03515625 36.31640625 C3.0628478 43.29124219 6.66336152 47.61732716 12.828125 52.171875 C18.75685367 56.77114206 23.98055061 62.0319431 29.2578125 67.34863281 C30.95487546 69.05637523 32.66231588 70.75320761 34.37109375 72.44921875 C51.44791451 89.50251089 51.44791451 89.50251089 54.96484375 97.31640625 C50.80133978 96.73807781 47.20609074 95.78302256 43.31640625 94.19921875 C42.24028076 93.76270996 41.16415527 93.32620117 40.05541992 92.87646484 C38.33995972 92.16611084 38.33995972 92.16611084 36.58984375 91.44140625 C35.40044189 90.9510791 34.21104004 90.46075195 32.9855957 89.95556641 C-21.59337389 67.27255099 -21.59337389 67.27255099 -31.03515625 45.31640625 C-34.59732456 35.43870282 -34.24296056 24.31557282 -30.22265625 14.68359375 C-24.80573053 3.88537997 -12.16105972 -4.08480893 0 0 Z " fill="#000000" transform="translate(314.03515625,663.68359375)"/>
<path d="M0 0 C0.66 0 1.32 0 2 0 C2.32049316 0.91773193 2.64098633 1.83546387 2.97119141 2.78100586 C15.67595646 39.04418528 30.30505208 74.47841852 47.91601562 108.66088867 C49 111 49 111 49 113 C29.84102219 106.57799626 11.35043586 83.0866271 2 66 C2 65.34 2 64.68 2 64 C1.34 64 0.68 64 0 64 C-0.24878906 64.69996094 -0.49757813 65.39992188 -0.75390625 66.12109375 C-5.39822521 76.85107204 -13.98789079 85.68758685 -22 94 C-22.64324219 94.70640625 -23.28648437 95.4128125 -23.94921875 96.140625 C-28.1808669 100.65683083 -32.9120381 104.33164744 -37.875 108 C-38.54241211 108.4937915 -39.20982422 108.98758301 -39.89746094 109.49633789 C-44.74439 113 -44.74439 113 -47 113 C-45.64129798 108.61453555 -43.92933318 104.63053121 -41.8671875 100.53125 C-41.22690581 99.24539141 -40.5873748 97.95915881 -39.94848633 96.67260742 C-39.44256454 95.65654922 -39.44256454 95.65654922 -38.92642212 94.6199646 C-23.71596483 63.95137735 -11.23661087 32.31401659 0 0 Z " fill="#000000" transform="translate(511,601)"/>
<path d="M0 0 C2.66177704 1.00556021 4.06269887 1.9442023 6.25 3.6875 C21.53988343 15.63722057 39.17290564 18.97525615 58.0703125 16.6640625 C68.09189291 14.56144209 79.45929146 9.54677566 87 2.5 C89.8125 0.0625 89.8125 0.0625 92.5 -0.125 C96.51339963 1.93593495 98.40888583 4.85165749 99.8125 9.0625 C100.0859375 11.1484375 100.0859375 11.1484375 100.1875 13.4375 C100.23648438 14.18773437 100.28546875 14.93796875 100.3359375 15.7109375 C99.52924712 19.33502412 97.64181936 20.72409566 94.8125 23.0625 C92.37264545 24.48632644 89.85692693 25.60522656 87.25 26.6875 C86.54617188 26.98672363 85.84234375 27.28594727 85.1171875 27.59423828 C60.44507089 37.79779286 30.68445611 36.77291649 5.95703125 27.390625 C-5.07510807 22.7310879 -5.07510807 22.7310879 -8.1875 18.0625 C-9.16750046 11.38067867 -7.70718447 6.61296448 -3.8125 1.125 C-2.1875 0.0625 -2.1875 0.0625 0 0 Z " fill="#000000" transform="translate(466.1875,916.9375)"/>
</svg>
